<?xml version="1.0" encoding="UTF-8" standalone="no"?>
<!-- Created with Inkscape (http://www.inkscape.org/) -->

<svg
   version="1.1"
   id="svg137"
   width="3200"
   height="1600"
   viewBox="0 0 3200 1600"
   sodipodi:docname="level part1 Black and white.svg"
   inkscape:version="1.2.2 (732a01da63, 2022-12-09)"
   xmlns:inkscape="http://www.inkscape.org/namespaces/inkscape"
   xmlns:sodipodi="http://sodipodi.sourceforge.net/DTD/sodipodi-0.dtd"
   xmlns:xlink="http://www.w3.org/1999/xlink"
   xmlns="http://www.w3.org/2000/svg"
   xmlns:svg="http://www.w3.org/2000/svg">
  <defs
     id="defs141" />
  <sodipodi:namedview
     id="namedview139"
     pagecolor="#ffffff"
     bordercolor="#000000"
     borderopacity="0.25"
     inkscape:showpageshadow="2"
     inkscape:pageopacity="0.0"
     inkscape:pagecheckerboard="0"
     inkscape:deskcolor="#d1d1d1"
     showgrid="false"
     inkscape:zoom="0.378125"
     inkscape:cx="1618.5124"
     inkscape:cy="1261.4876"
     inkscape:window-width="1536"
     inkscape:window-height="841"
     inkscape:window-x="-8"
     inkscape:window-y="-8"
     inkscape:window-maximized="1"
     inkscape:current-layer="g143" />
  <g
     inkscape:groupmode="layer"
     inkscape:label="Image"
     id="g143">
    <image
       width="3200"
       height="1600"
       preserveAspectRatio="none"
       xlink:href="level%20part1%20Black%20and%20white%20%20.png"
       id="image145" />
    <path
       style="fill:#000000"
       d="m 0,768 h 3200 v 85 H 0 Z"
       id="path250"
       sodipodi:nodetypes="ccccc" />
    <path
       style="fill:#000000"
       d="m 1,853 c 0,-0.66625 533.66667,-1 1599,-1 1065.3333,0 1599,0.33375 1599,1 0,0.66625 -533.6667,1 -1599,1 C 534.66667,854 1,853.66625 1,853 Z m 0,-85 c 0,-0.66625 533.66667,-1 1599,-1 1065.3333,0 1599,0.33375 1599,1 0,0.66625 -533.6667,1 -1599,1 C 534.66667,769 1,768.66625 1,768 Z"
       id="path201" />
  </g>
</svg>
